<?xml version="1.0" standalone="no"?>
<!DOCTYPE svg PUBLIC "-//W3C//DTD SVG 20010904//EN"
 "http://www.w3.org/TR/2001/REC-SVG-20010904/DTD/svg10.dtd">
<svg version="1.0" xmlns="http://www.w3.org/2000/svg"
 width="409.000000pt" height="409.000000pt" viewBox="0 0 409.000000 409.000000"
 preserveAspectRatio="xMidYMid meet">
<metadata>
Created by potrace 1.14, written by Peter Selinger 2001-2017
</metadata>
<g transform="translate(0.000000,409.000000) scale(0.100000,-0.100000)"
fill="#000000" stroke="none">
<path d="M436 4081 c-17 -3 572 -5 1309 -3 736 1 1341 4 1343 7 8 7 -2618 4
-2652 -4z"/>
<path d="M3175 4084 c62 -7 445 -9 423 -2 -13 3 -120 6 -238 5 -118 0 -201 -2
-185 -3z"/>
<path d="M3108 4073 c6 -2 18 -2 25 0 6 3 1 5 -13 5 -14 0 -19 -2 -12 -5z"/>
<path d="M3860 3986 c0 -2 8 -10 18 -17 15 -13 16 -12 3 4 -13 16 -21 21 -21
13z"/>
<path d="M4010 3766 c0 -8 5 -18 10 -21 6 -3 10 3 10 14 0 12 -4 21 -10 21 -5
0 -10 -6 -10 -14z"/>
<path d="M2 3720 c0 -14 2 -19 5 -12 2 6 2 18 0 25 -3 6 -5 1 -5 -13z"/>
<path d="M4029 2204 c-1 -841 -1 -1559 0 -1597 1 -41 -2 -67 -9 -67 -5 0 -10
-5 -10 -11 0 -5 5 -7 11 -3 8 4 8 0 0 -15 -8 -14 -8 -21 -1 -21 13 0 13 -47 1
-55 -5 -3 -12 4 -16 15 -3 11 -11 20 -16 20 -6 0 -3 -10 5 -22 10 -13 16 -44
16 -74 0 -41 -5 -59 -25 -82 -14 -17 -25 -34 -25 -39 0 -5 -7 -18 -16 -29 -8
-10 -13 -13 -9 -6 3 6 1 12 -4 12 -6 0 -11 19 -11 41 l0 42 -45 -5 c-52 -6
-75 -22 -75 -52 0 -33 46 -76 80 -76 21 0 28 -4 24 -14 -3 -8 -15 -16 -27 -18
-12 -2 -21 -9 -20 -16 4 -17 -23 -15 -52 4 -14 9 -25 13 -25 8 0 -5 -7 1 -15
12 -20 30 -88 30 -101 0 -7 -17 -16 -20 -47 -18 -21 2 -37 -2 -37 -8 0 -12
-822 -15 -834 -3 -13 13 -133 13 -151 -1 -16 -11 -15 -14 15 -26 23 -10 37
-10 49 -3 25 15 908 18 926 3 9 -8 20 -8 32 -2 22 11 43 5 43 -14 0 -8 -6 -11
-15 -8 -8 3 -20 2 -26 -2 -15 -9 -129 -8 -176 2 -20 4 -33 2 -33 -4 0 -19 -59
-25 -85 -8 -35 23 -273 23 -281 1 -5 -12 -30 -15 -134 -15 -122 0 -129 1 -132
20 -4 27 -18 30 -32 7 -8 -14 -8 -20 4 -27 22 -14 6 -22 -23 -11 -14 6 -41 8
-59 5 -20 -4 -45 0 -63 10 -16 9 -39 16 -50 15 l-20 0 20 -9 c24 -10 -363 -18
-445 -9 -30 3 -50 7 -45 8 6 1 3 5 -5 10 -8 4 -48 5 -88 1 -40 -4 -84 -5 -98
-2 -16 3 -24 0 -22 -8 2 -9 -57 -12 -250 -12 -156 -1 -248 -5 -240 -10 10 -7
10 -9 -2 -5 -8 2 -16 15 -18 30 -2 18 -8 24 -18 20 -8 -3 -14 -1 -14 5 0 6 14
14 32 17 l32 8 -34 16 c-26 13 -42 15 -63 8 -15 -5 -38 -6 -52 -3 -13 3 -27 2
-30 -4 -3 -5 -30 -11 -58 -11 -45 -1 -48 -2 -22 -9 20 -5 -11 -8 -90 -10 -66
-1 -185 -4 -265 -6 -80 -2 -155 -4 -168 -4 -12 0 -31 -9 -42 -20 -17 -17 -33
-20 -119 -20 -58 0 -102 4 -106 10 -4 6 -16 8 -27 4 -14 -4 -18 -2 -14 5 4 6
0 14 -9 17 -36 14 12 22 134 23 68 1 127 3 129 6 3 3 -38 5 -91 5 -53 0 -99 4
-102 10 -4 7 -13 7 -25 0 -24 -13 -60 7 -60 32 0 10 -5 18 -10 18 -6 0 -8 -12
-6 -26 4 -20 0 -27 -15 -31 -26 -7 -23 -12 34 -73 l49 -50 1832 0 1832 0 31
32 c16 18 42 51 57 73 l26 40 0 1753 c0 1865 2 1783 -44 1822 -15 11 -16 -128
-17 -1516z m-152 -1910 c-3 -3 -12 -4 -19 -1 -8 3 -5 6 6 6 11 1 17 -2 13 -5z
m-159 -145 c-2 -6 -8 -10 -13 -10 -5 0 -11 4 -13 10 -2 6 4 11 13 11 9 0 15
-5 13 -11z m-2433 -58 c17 -11 17 -12 2 -7 -10 3 -39 6 -63 6 -24 0 -44 3 -44
8 0 12 84 7 105 -7z m-462 -48 c-46 -2 -120 -2 -165 0 -46 1 -9 3 82 3 91 0
128 -2 83 -3z m1135 0 c-15 -2 -42 -2 -60 0 -18 2 -6 4 27 4 33 0 48 -2 33 -4z
m1355 0 c-7 -2 -21 -2 -30 0 -10 3 -4 5 12 5 17 0 24 -2 18 -5z m210 0 c-18
-2 -48 -2 -65 0 -18 2 -4 4 32 4 36 0 50 -2 33 -4z m-1400 -10 c-7 -2 -21 -2
-30 0 -10 3 -4 5 12 5 17 0 24 -2 18 -5z m210 0 c-7 -2 -19 -2 -25 0 -7 3 -2
5 12 5 14 0 19 -2 13 -5z"/>
<path d="M1227 3200 c-14 -34 -37 -140 -37 -169 0 -27 -8 -36 -58 -69 -32 -20
-64 -43 -72 -50 -8 -6 -39 -30 -67 -52 -52 -40 -91 -86 -80 -96 3 -3 34 21 68
54 109 100 204 154 184 105 -6 -17 -31 -180 -45 -298 -8 -67 2 -112 15 -69 4
10 13 33 20 51 13 28 12 31 -1 26 -16 -6 -14 22 7 130 5 26 9 63 9 82 0 18 5
56 11 83 10 40 18 52 43 64 17 8 59 29 92 46 34 18 83 36 109 41 26 5 54 17
64 26 15 16 14 17 -9 12 -38 -7 -125 -41 -128 -49 -2 -5 -11 -8 -20 -8 -9 0
-40 -11 -69 -24 -56 -27 -66 -25 -53 7 15 40 32 133 28 153 -4 15 -6 16 -11 4z"/>
<path d="M1191 2704 c0 -11 3 -14 6 -6 3 7 2 16 -1 19 -3 4 -6 -2 -5 -13z"/>
<path d="M3218 2554 c-7 -11 -54 -177 -63 -221 -14 -69 -29 -59 -89 60 -32 61
-64 119 -72 127 -32 33 -12 -24 55 -152 l68 -133 -37 -105 c-21 -58 -52 -138
-69 -178 -33 -74 -36 -104 -7 -60 8 13 38 79 67 148 28 69 55 129 59 134 9 9
88 -143 110 -211 15 -47 30 -57 30 -19 0 24 -32 99 -95 228 l-28 57 23 68 c12
38 26 82 31 98 4 17 14 54 23 84 9 31 12 61 7 69 -5 8 -11 11 -13 6z"/>
<path d="M1092 2480 c0 -14 2 -19 5 -12 2 6 2 18 0 25 -3 6 -5 1 -5 -13z"/>
<path d="M1428 2394 c-52 -27 -74 -54 -84 -102 -8 -40 6 -41 29 -3 18 30 71
61 106 61 12 0 21 -2 21 -4 0 -2 -12 -30 -26 -61 -22 -47 -27 -74 -28 -141 -1
-53 3 -87 11 -95 10 -10 14 -9 18 3 7 17 19 17 98 -3 39 -10 47 -16 47 -36 0
-35 15 -28 29 15 17 52 11 107 -12 106 -19 -2 -33 35 -23 61 8 21 33 19 46 -5
30 -57 42 20 13 92 -49 128 -137 169 -245 112z"/>
<path d="M3873 2370 c0 -30 2 -43 4 -27 2 15 2 39 0 55 -2 15 -4 2 -4 -28z"/>
<path d="M1 2314 c0 -11 3 -14 6 -6 3 7 2 16 -1 19 -3 4 -6 -2 -5 -13z"/>
<path d="M4 2050 c0 -124 2 -174 3 -112 2 61 2 163 0 225 -1 61 -3 11 -3 -113z"/>
<path d="M3851 2254 c0 -11 3 -14 6 -6 3 7 2 16 -1 19 -3 4 -6 -2 -5 -13z"/>
<path d="M1021 2244 c0 -11 3 -14 6 -6 3 7 2 16 -1 19 -3 4 -6 -2 -5 -13z"/>
<path d="M2397 2194 c-9 -10 2 -24 19 -24 8 0 14 7 14 15 0 15 -21 21 -33 9z"/>
<path d="M2303 2110 c-72 -35 -67 -42 40 -54 60 -7 88 -22 81 -41 -4 -8 -12
-15 -20 -15 -17 0 -79 -62 -98 -98 -19 -37 -32 -142 -17 -142 6 0 16 11 21 25
5 14 11 25 14 25 2 0 23 -16 47 -36 23 -19 58 -42 78 -50 37 -16 51 -30 51
-54 0 -15 -42 -40 -66 -40 -7 0 -15 -4 -18 -8 -2 -4 8 -8 22 -7 38 0 120 43
127 66 4 10 10 19 14 19 13 0 34 57 26 70 -3 5 -10 8 -15 5 -14 -9 -41 26 -38
49 3 23 34 34 51 17 15 -15 26 -111 16 -139 -15 -38 25 -9 45 33 16 33 16 41
2 96 -27 108 -105 209 -201 261 -71 38 -111 42 -162 18z m247 -324 c0 -3 -4
-8 -10 -11 -5 -3 -10 -1 -10 4 0 6 5 11 10 11 6 0 10 -2 10 -4z"/>
<path d="M836 2057 c3 -10 9 -15 12 -12 3 3 0 11 -7 18 -10 9 -11 8 -5 -6z"/>
<path d="M1260 2049 c0 -5 5 -7 10 -4 6 3 10 8 10 11 0 2 -4 4 -10 4 -5 0 -10
-5 -10 -11z"/>
<path d="M1002 1990 c0 -19 2 -27 5 -17 2 9 2 25 0 35 -3 9 -5 1 -5 -18z"/>
<path d="M1606 1965 c-3 -8 -1 -15 4 -15 6 0 10 7 10 15 0 8 -2 15 -4 15 -2 0
-6 -7 -10 -15z"/>
<path d="M3706 1826 c-4 -20 -3 -43 2 -52 7 -13 10 -8 15 21 8 52 -8 81 -17
31z"/>
<path d="M3 1750 c0 -25 2 -35 4 -22 2 12 2 32 0 45 -2 12 -4 2 -4 -23z"/>
<path d="M3 1645 c0 -22 2 -30 4 -17 2 12 2 30 0 40 -3 9 -5 -1 -4 -23z"/>
<path d="M420 1574 c-14 -8 -18 -14 -10 -13 8 0 26 6 40 14 14 8 18 14 10 14
-8 -1 -26 -7 -40 -15z"/>
<path d="M2 1485 c0 -16 2 -22 5 -12 2 9 2 23 0 30 -3 6 -5 -1 -5 -18z"/>
<path d="M3221 1484 c0 -11 3 -14 6 -6 3 7 2 16 -1 19 -3 4 -6 -2 -5 -13z"/>
<path d="M1400 1482 c0 -4 27 -36 60 -71 33 -35 60 -65 60 -66 0 -1 -12 0 -27
2 -26 4 -25 3 7 -13 36 -19 70 -50 70 -66 0 -4 5 -8 11 -8 8 0 8 5 -1 15 -20
24 4 17 48 -14 46 -34 59 -51 45 -60 -6 -3 -13 -16 -17 -28 -10 -33 -19 -29
-52 22 -15 25 -32 45 -36 45 -4 0 -20 -19 -35 -42 -15 -24 -38 -56 -50 -71
-13 -16 -23 -38 -23 -50 0 -16 -3 -18 -9 -8 -5 8 -11 9 -15 3 -7 -12 -16 -10
-151 30 -55 16 -116 35 -135 40 -19 6 -57 13 -85 17 -45 5 -50 9 -56 36 -5 21
-7 24 -8 9 -1 -29 -19 -42 -65 -46 -42 -3 -75 -36 -82 -80 -10 -65 -26 -134
-34 -141 -4 -5 -27 4 -50 20 -185 123 -416 233 -490 233 -15 0 -30 4 -35 9
-30 30 -75 -79 -75 -181 0 -68 18 -162 41 -218 12 -30 18 -70 18 -119 0 -40 2
-75 4 -77 2 -3 17 2 32 10 34 18 84 11 107 -15 9 -10 25 -19 36 -19 42 0 72
-19 78 -50 5 -21 12 -30 25 -30 23 0 24 18 4 47 -28 40 2 68 62 57 33 -6 73
-44 73 -70 0 -8 6 -11 16 -7 8 3 29 -4 46 -17 30 -22 32 -22 44 -5 10 13 25
18 56 17 67 -3 78 4 78 48 0 47 22 58 75 36 33 -14 36 -19 34 -48 -4 -36 11
-40 42 -12 25 22 52 17 87 -17 18 -17 32 -34 32 -38 -1 -19 -22 -33 -59 -38
-31 -4 -41 -10 -41 -24 0 -11 -4 -19 -8 -19 -13 0 -40 -68 -32 -80 4 -7 32
-20 61 -29 73 -24 77 -49 16 -85 -55 -33 -72 -32 -115 0 l-34 27 -67 -21 c-36
-12 -86 -27 -111 -33 -50 -14 -72 -27 -65 -39 7 -11 423 -2 527 10 62 7 83 6
105 -5 41 -22 50 -19 79 25 26 39 27 67 2 42 -17 -17 -80 -15 -107 4 -21 15
-23 15 -37 -5 -30 -42 -71 -19 -93 51 -10 30 -9 52 5 118 15 68 16 87 5 116
-25 69 23 81 86 22 17 -17 36 -27 42 -24 6 4 19 2 30 -4 20 -10 40 3 21 15
-26 16 4 64 40 65 20 0 110 -85 110 -104 0 -8 -13 -28 -29 -43 -26 -24 -29
-32 -23 -62 8 -37 32 -55 32 -24 0 32 68 163 85 163 21 0 19 21 -10 91 -21 49
-25 73 -23 132 l3 72 53 8 c77 13 153 -2 168 -32 l12 -24 16 38 c13 30 20 36
37 32 15 -4 19 -2 15 9 -3 8 -1 26 5 40 10 29 3 47 -10 25 -14 -23 -18 2 -11
69 8 71 5 84 -16 76 -22 -8 -16 13 10 39 31 31 49 25 71 -26 10 -21 24 -39 30
-39 16 0 30 33 16 38 -5 2 -24 25 -41 51 -27 43 -35 49 -76 55 -58 7 -231 129
-351 245 -46 44 -83 77 -83 73z m192 -299 c24 -28 70 -132 63 -143 -4 -6 -20
-17 -36 -26 -28 -14 -33 -13 -87 14 -65 33 -75 54 -39 83 14 10 35 35 47 54
25 40 31 42 52 18z m122 8 c3 -5 -1 -11 -9 -14 -9 -4 -12 -1 -8 9 6 16 10 17
17 5z m86 -155 c0 -8 -7 -16 -15 -20 -12 -4 -13 -2 -2 14 14 24 17 25 17 6z"/>
<path d="M3183 1404 c-29 -63 -117 -196 -158 -237 -59 -60 -31 -57 32 4 35 33
50 44 40 27 -9 -15 -17 -36 -17 -47 0 -11 -4 -23 -10 -26 -5 -3 -10 -17 -10
-29 0 -13 -7 -29 -15 -36 -8 -7 -15 -20 -14 -29 0 -13 1 -14 6 -1 3 8 11 22
18 30 22 25 81 142 94 185 7 22 18 56 25 75 26 69 38 112 32 117 -3 3 -13 -12
-23 -33z"/>
<path d="M2821 1384 c0 -11 3 -14 6 -6 3 7 2 16 -1 19 -3 4 -6 -2 -5 -13z"/>
<path d="M3292 1310 c0 -19 2 -27 5 -17 2 9 2 25 0 35 -3 9 -5 1 -5 -18z"/>
<path d="M3464 1240 c6 -100 22 -160 41 -160 8 0 21 -10 29 -22 l16 -22 0 21
c0 12 -4 24 -10 28 -5 3 -14 33 -21 66 -6 33 -16 62 -20 65 -5 3 -9 17 -9 32
-1 15 -8 38 -16 52 -14 23 -15 19 -10 -60z"/>
<path d="M2754 1269 c-3 -6 -22 -9 -40 -7 -19 2 -34 0 -34 -4 0 -18 65 -14 84
5 10 9 13 17 7 17 -5 0 -13 -5 -17 -11z"/>
<path d="M982 1250 c0 -14 2 -19 5 -12 2 6 2 18 0 25 -3 6 -5 1 -5 -13z"/>
<path d="M2695 1190 c-3 -5 -1 -10 4 -10 6 0 11 5 11 10 0 6 -2 10 -4 10 -3 0
-8 -4 -11 -10z"/>
<path d="M4 1105 c0 -49 1 -71 3 -48 2 23 2 64 0 90 -2 26 -3 8 -3 -42z"/>
<path d="M2083 1170 c-13 -5 -23 -14 -23 -20 0 -15 8 -12 32 10 24 22 23 23
-9 10z"/>
<path d="M3233 1144 c-7 -7 -13 -19 -13 -26 0 -7 7 -2 16 10 18 26 16 37 -3
16z"/>
<path d="M2030 1115 c-7 -8 -18 -15 -24 -15 -6 0 -17 -10 -25 -22 -10 -17 -4
-14 28 11 37 30 48 41 37 41 -2 0 -9 -7 -16 -15z"/>
<path d="M2929 1083 c-13 -17 -13 -17 6 -3 11 8 22 16 24 17 2 2 0 3 -6 3 -6
0 -17 -8 -24 -17z"/>
<path d="M2880 1060 c0 -5 5 -10 10 -10 6 0 10 5 10 10 0 6 -4 10 -10 10 -5 0
-10 -4 -10 -10z"/>
<path d="M3123 983 c-29 -28 -65 -59 -80 -67 -15 -8 -23 -15 -17 -16 20 0 104
62 131 96 39 51 25 46 -34 -13z"/>
<path d="M2788 1023 c6 -2 18 -2 25 0 6 3 1 5 -13 5 -14 0 -19 -2 -12 -5z"/>
<path d="M3 965 c0 -27 2 -38 4 -22 2 15 2 37 0 50 -2 12 -4 0 -4 -28z"/>
<path d="M2555 993 c-70 -4 -118 -23 -59 -23 25 -1 27 -2 11 -11 -10 -6 -25
-8 -33 -5 -8 3 -23 -3 -34 -14 -33 -33 -163 -144 -205 -174 -79 -58 -113 -93
-104 -107 5 -8 9 -24 9 -35 0 -12 7 -24 15 -28 30 -11 65 -111 68 -190 1 -47
6 -71 12 -65 5 5 8 41 7 79 -3 65 -1 72 25 97 17 16 21 24 11 20 -32 -11 -28
11 7 42 20 17 40 31 45 31 5 0 24 13 42 28 18 16 58 36 88 44 30 9 71 20 90
26 19 5 27 10 18 11 -25 1 -22 18 3 26 59 19 208 -29 257 -83 55 -61 43 -17
-56 189 -22 46 -43 98 -48 114 -10 33 -23 36 -169 28z m136 -45 c10 -19 9 -20
-7 -13 -11 5 -31 9 -46 10 -42 4 -44 5 -28 15 27 17 68 12 81 -12z m20 -119
c18 -18 18 -19 0 -19 -17 0 -81 19 -90 27 -3 2 4 10 15 17 21 16 41 9 75 -25z"/>
<path d="M1870 971 c0 -5 -3 -18 -6 -28 -5 -16 -4 -16 10 1 18 23 20 36 6 36
-5 0 -10 -4 -10 -9z"/>
<path d="M4 715 c0 -110 2 -156 3 -103 2 53 2 143 0 200 -1 57 -3 13 -3 -97z"/>
<path d="M2865 841 c-16 -3 -25 -9 -19 -13 13 -9 54 1 54 13 0 5 -1 8 -2 8 -2
-1 -16 -4 -33 -8z"/>
<path d="M1681 684 c0 -11 3 -14 6 -6 3 7 2 16 -1 19 -3 4 -6 -2 -5 -13z"/>
<path d="M1725 676 c-10 -14 -26 -26 -37 -26 -11 0 -28 -10 -38 -22 -16 -20
-16 -25 -3 -45 13 -19 13 -26 3 -38 -18 -22 -8 -27 28 -14 21 7 42 7 66 1 34
-10 36 -9 36 14 0 17 -6 24 -19 24 -55 0 -67 39 -29 90 12 16 19 32 16 36 -4
3 -14 -6 -23 -20z"/>
<path d="M2088 693 c7 -3 16 -2 19 1 4 3 -2 6 -13 5 -11 0 -14 -3 -6 -6z"/>
<path d="M2668 693 c6 -2 18 -2 25 0 6 3 1 5 -13 5 -14 0 -19 -2 -12 -5z"/>
<path d="M3855 631 l-30 -7 32 -7 c47 -9 52 -42 23 -152 -13 -49 -25 -98 -28
-107 -3 -12 1 -18 12 -18 10 0 17 7 15 18 -4 40 3 54 51 107 28 30 50 64 50
74 0 40 -20 72 -55 86 -19 8 -36 14 -37 14 -2 -1 -16 -4 -33 -8z"/>
<path d="M3785 594 c-9 -9 -14 -23 -11 -31 3 -8 6 -19 6 -24 0 -5 14 -9 30 -9
26 0 30 4 30 26 0 22 -20 54 -34 54 -2 0 -12 -7 -21 -16z"/>
<path d="M317 570 c10 -12 21 -16 26 -11 13 13 -1 31 -23 31 -19 0 -19 -1 -3
-20z"/>
<path d="M920 540 c0 -22 2 -40 4 -40 2 0 11 -3 20 -6 13 -5 16 2 16 40 0 39
-3 46 -20 46 -17 0 -20 -7 -20 -40z"/>
<path d="M557 553 c15 -43 53 -60 53 -25 0 23 -19 42 -42 42 -12 0 -16 -5 -11
-17z"/>
<path d="M2536 562 c-7 -12 22 -38 31 -28 4 3 0 14 -9 22 -9 10 -18 12 -22 6z"/>
<path d="M3174 534 l1 -38 -65 -13 c-36 -8 -75 -12 -87 -10 -31 6 -29 -11 2
-19 23 -6 49 -1 122 21 28 9 42 -19 24 -48 -9 -14 -10 -22 -2 -30 16 -16 14
-44 -3 -50 -15 -6 -28 5 -40 33 -3 8 -4 2 -1 -15 3 -16 15 -36 25 -44 26 -17
25 -29 -2 -58 -12 -13 -17 -23 -12 -23 6 0 23 14 39 30 30 32 33 48 22 150 -2
19 -1 41 1 48 5 15 88 17 97 2 9 -15 35 -12 35 5 0 13 -10 17 -72 30 -10 2
-18 -1 -18 -6 0 -5 -9 -9 -19 -9 -16 0 -20 8 -23 37 -4 49 -26 55 -24 7z"/>
<path d="M2340 552 c0 -5 9 -17 20 -27 11 -10 20 -24 20 -30 0 -17 -31 -28
-44 -15 -5 5 -14 10 -19 10 -5 0 -2 -6 6 -14 8 -8 32 -16 53 -18 31 -2 40 -7
42 -25 3 -18 -3 -23 -33 -29 -21 -4 -47 -2 -61 5 -32 14 -35 14 -28 -4 5 -11
23 -15 75 -15 66 0 70 -1 80 -27 7 -18 6 -30 -1 -37 -16 -16 -12 -26 10 -26
15 0 20 7 20 29 0 17 -4 33 -10 36 -17 11 -11 43 10 50 11 3 20 11 20 16 0 12
-27 12 -35 -1 -10 -16 -23 -12 -35 11 -9 17 -8 23 7 35 17 12 16 13 -8 14 -19
0 -33 10 -50 35 -23 33 -39 44 -39 27z"/>
<path d="M260 541 c0 -13 26 -32 33 -24 8 7 -11 33 -24 33 -5 0 -9 -4 -9 -9z"/>
<path d="M2000 545 c0 -5 7 -16 16 -26 34 -38 -2 -59 -59 -34 -26 11 -35 -4
-12 -22 20 -14 79 -14 116 2 20 8 47 -19 75 -72 14 -27 16 -37 7 -40 -7 -3
-13 -11 -13 -19 0 -16 36 -19 45 -3 11 16 -22 93 -50 117 -29 25 -32 40 -10
48 8 4 15 13 15 21 0 8 -3 13 -7 11 -5 -2 -20 -10 -36 -18 -26 -12 -29 -11
-57 15 -17 16 -30 25 -30 20z"/>
<path d="M420 531 c0 -5 7 -14 15 -21 13 -10 15 -9 15 9 0 12 -6 21 -15 21 -8
0 -15 -4 -15 -9z"/>
<path d="M1403 528 c18 -48 17 -57 -2 -67 -11 -6 -27 -8 -35 -5 -9 3 -16 1
-16 -5 0 -6 11 -11 24 -11 13 0 29 -7 36 -14 18 -22 9 -88 -14 -105 -18 -14
-18 -15 -1 -21 16 -6 16 -7 1 -23 -22 -22 -66 -23 -66 -1 0 8 -5 12 -10 9 -7
-4 -7 -13 0 -26 14 -26 71 -26 95 1 21 24 43 26 51 5 4 -8 12 -15 20 -15 28 0
10 35 -27 54 -21 10 -24 20 -27 74 -3 58 -1 63 23 74 14 6 25 18 25 27 0 13
-2 14 -9 2 -15 -23 -41 -5 -41 29 0 21 -5 30 -16 30 -9 0 -14 -6 -11 -12z"/>
<path d="M2773 521 c-92 -42 -109 -50 -138 -59 l-30 -10 30 -1 c17 -1 43 6 59
14 37 19 61 13 47 -12 -5 -10 -12 -43 -16 -74 -10 -77 11 -124 59 -137 42 -12
76 -5 76 14 0 10 -13 14 -40 14 -59 0 -80 26 -80 95 0 103 53 162 136 153 15
-2 29 3 31 10 7 19 -85 15 -134 -7z"/>
<path d="M3488 502 c5 -46 -15 -66 -64 -66 -20 0 -33 -5 -31 -10 2 -6 18 -11
36 -11 29 0 31 -2 26 -25 -4 -14 -22 -46 -41 -72 -44 -62 -46 -97 -4 -50 l30
33 10 -26 c20 -53 98 -10 117 65 13 54 5 88 -28 112 -22 16 -29 30 -29 55 0
20 -5 33 -13 33 -9 0 -11 -12 -9 -38z m56 -68 c35 -34 -11 -154 -58 -154 -38
0 -50 23 -35 65 7 19 17 35 21 35 4 0 8 7 8 15 0 13 33 55 44 55 3 0 12 -7 20
-16z"/>
<path d="M2490 515 c0 -8 7 -15 15 -15 8 0 15 4 15 9 0 5 -7 11 -15 15 -9 3
-15 0 -15 -9z"/>
<path d="M343 513 c-22 -8 -14 -21 17 -25 36 -5 44 0 29 19 -12 13 -25 15 -46
6z"/>
<path d="M1057 514 c-11 -12 3 -24 29 -24 27 0 32 15 8 24 -20 8 -29 8 -37 0z"/>
<path d="M1233 452 l-1 -67 17 45 c13 33 15 51 8 68 -16 36 -22 26 -24 -46z"/>
<path d="M118 500 c12 -5 22 -14 22 -19 0 -5 16 -5 40 1 59 15 49 28 -22 27
-48 0 -58 -2 -40 -9z"/>
<path d="M2 480 c0 -14 2 -19 5 -12 2 6 2 18 0 25 -3 6 -5 1 -5 -13z"/>
<path d="M660 480 c0 -5 4 -10 9 -10 5 0 18 -3 28 -7 16 -6 16 -5 4 10 -15 19
-41 23 -41 7z"/>
<path d="M1665 480 c-11 -5 -33 -9 -50 -9 -26 -1 -28 -2 -14 -17 14 -14 20
-13 60 1 73 27 88 29 109 10 29 -26 35 -71 14 -103 -21 -34 -83 -90 -106 -98
-10 -3 -18 -9 -18 -14 0 -16 52 9 97 46 76 62 92 122 47 168 -22 21 -36 26
-73 25 -25 0 -55 -4 -66 -9z"/>
<path d="M970 423 c-8 -38 -18 -57 -30 -60 -12 -3 -16 -11 -12 -25 3 -14 -6
-28 -32 -50 -20 -17 -35 -32 -33 -35 7 -6 57 19 57 29 0 20 38 5 69 -27 32
-33 71 -47 71 -26 0 5 10 13 22 17 19 6 15 9 -28 28 -91 39 -89 36 -69 92 10
27 23 55 28 62 7 9 4 18 -10 31 -20 19 -20 19 -33 -36z"/>
<path d="M560 460 c12 -7 15 -32 16 -112 0 -78 4 -103 14 -103 9 0 12 24 12
100 -1 82 -4 102 -19 112 -9 7 -22 13 -27 13 -6 0 -4 -5 4 -10z"/>
<path d="M931 444 c0 -11 3 -14 6 -6 3 7 2 16 -1 19 -3 4 -6 -2 -5 -13z"/>
<path d="M2905 451 c-3 -6 3 -15 14 -20 24 -14 31 -14 31 -1 0 14 -38 32 -45
21z"/>
<path d="M402 428 c3 -7 12 -14 21 -16 12 -2 15 1 11 12 -7 19 -38 22 -32 4z"/>
<path d="M850 425 c-10 -12 -7 -14 18 -12 19 1 28 6 25 15 -7 16 -28 15 -43
-3z"/>
<path d="M1290 433 c0 -5 5 -14 11 -20 9 -9 9 -20 -1 -43 -15 -36 -9 -46 18
-31 12 6 30 11 41 11 15 0 21 6 21 23 0 22 -13 32 -82 65 -5 2 -8 0 -8 -5z"/>
<path d="M3683 422 c23 -26 21 -37 -10 -62 l-28 -22 35 4 c30 3 35 7 38 31 3
28 -21 67 -41 67 -6 0 -3 -8 6 -18z"/>
<path d="M2840 421 c0 -9 41 -33 47 -27 3 2 2 9 -1 14 -7 12 -46 23 -46 13z"/>
<path d="M650 380 c0 -5 5 -10 10 -10 6 0 10 5 10 10 0 6 -4 10 -10 10 -5 0
-10 -4 -10 -10z"/>
<path d="M820 361 c0 -6 5 -13 10 -16 6 -3 10 -15 10 -26 0 -25 22 -24 38 2
10 16 10 24 1 35 -13 16 -59 19 -59 5z"/>
<path d="M1210 313 c0 -28 6 -58 15 -69 8 -10 15 -17 15 -14 6 25 8 121 3 116
-3 -3 -12 -1 -20 5 -10 9 -13 2 -13 -38z"/>
<path d="M1940 306 c0 -35 117 -84 135 -56 10 16 -12 30 -48 30 -16 0 -42 9
-58 21 -23 16 -29 17 -29 5z"/>
<path d="M408 282 c-22 -37 -23 -52 -3 -52 16 0 29 37 23 65 -2 12 -7 9 -20
-13z"/>
<path d="M1338 303 c7 -3 16 -2 19 1 4 3 -2 6 -13 5 -11 0 -14 -3 -6 -6z"/>
<path d="M2286 287 c12 -33 104 -62 119 -37 3 6 3 10 -2 11 -29 2 -61 11 -86
24 -37 18 -38 18 -31 2z"/>
<path d="M60 259 c0 -10 4 -19 8 -19 5 0 14 -10 20 -22 10 -21 11 -22 11 -3 1
18 8 20 71 20 52 0 73 4 87 17 26 27 10 32 -59 18 -46 -9 -73 -10 -100 -2 -34
9 -38 9 -38 -9z"/>
<path d="M687 263 c-13 -12 -7 -23 12 -23 26 0 35 16 15 24 -19 7 -19 7 -27
-1z"/>
<path d="M1925 219 c-12 -38 17 -53 113 -59 60 -4 97 -2 119 7 18 7 35 13 38
13 22 0 25 1 20 10 -12 20 -85 32 -121 20 -42 -14 -117 -5 -138 16 -19 19 -23
18 -31 -7z"/>
<path d="M177 155 c-7 -16 8 -29 23 -20 15 9 12 35 -4 35 -8 0 -16 -7 -19 -15z"/>
<path d="M1470 120 c0 -22 5 -40 10 -40 6 0 10 18 10 40 0 22 -4 40 -10 40 -5
0 -10 -18 -10 -40z"/>
<path d="M1626 149 c-3 -8 -7 -23 -9 -34 -4 -18 -5 -18 -6 3 0 12 -6 22 -12
22 -6 0 -9 -12 -7 -27 3 -26 4 -27 63 -24 33 1 64 6 69 11 14 14 -4 31 -26 24
-13 -4 -28 2 -44 17 -18 17 -25 19 -28 8z"/>
<path d="M2460 153 c0 -5 5 -15 10 -23 8 -12 10 -11 10 8 0 12 -4 22 -10 22
-5 0 -10 -3 -10 -7z"/>
<path d="M1903 143 c-7 -2 -9 -12 -6 -21 3 -13 2 -14 -4 -4 -10 13 -80 14 -98
1 -9 -7 -17 -9 -31 -9 -4 0 -1 -6 5 -13 11 -15 67 -11 88 5 7 6 13 4 15 -4 6
-16 88 -13 99 4 15 24 9 31 -20 25 -20 -4 -31 -2 -33 7 -2 7 -8 11 -15 9z"/>
<path d="M2303 133 c-9 -14 -14 -15 -21 -5 -7 10 -19 11 -51 3 -53 -12 -61
-19 -38 -36 13 -9 44 -12 110 -9 51 2 100 4 109 4 13 0 17 7 16 25 -2 26 -15
26 -76 4 -18 -7 -22 -6 -20 8 4 23 -15 26 -29 6z"/>
<path d="M1997 133 c-10 -10 -8 -43 2 -43 9 0 21 24 21 41 0 11 -14 12 -23 2z"/>
<path d="M1507 124 c-4 -4 -7 -16 -7 -26 0 -14 6 -19 23 -16 14 2 22 10 22 23
0 20 -25 32 -38 19z"/>
<path d="M2064 116 c-8 -21 3 -35 27 -33 14 1 19 7 17 22 -4 24 -36 33 -44 11z"/>
<path d="M2147 123 c-13 -12 -7 -33 8 -33 8 0 15 9 15 20 0 20 -11 26 -23 13z"/>
<path d="M581 116 c9 -8 99 -13 99 -5 0 5 -23 9 -52 9 -28 0 -49 -2 -47 -4z"/>
<path d="M748 113 c29 -2 74 -2 100 0 26 2 2 3 -53 3 -55 0 -76 -1 -47 -3z"/>
<path d="M913 113 c9 -2 25 -2 35 0 9 3 1 5 -18 5 -19 0 -27 -2 -17 -5z"/>
<path d="M1038 113 c7 -3 16 -2 19 1 4 3 -2 6 -13 5 -11 0 -14 -3 -6 -6z"/>
</g>
</svg>
